# xmcd CD database file
#
# Track frame offsets:
#	165
#	17822
#	31355
#	49466
#	62660
#	79119
#	92137
#	106860
#	117869
#	131999
#	146687
#	158639
#	177846
#	190215
#	208559
#	221437
#	238137
#	250955
#	266336
#	276000
#	295928
#	310632
#	324401
#
# Disc length: 4542 seconds
#
# Revision: 1
# Processed by: cddbd v1.5.2PL0 Copyright (c) Steve Scherf et al.
# Submitted via: CDex 1.70beta2
#
DISCID=4f11bc17
DTITLE=Davies, Gail - The Songwriter Sessions [CD1)
DYEAR=2003
DGENRE=Country
TTITLE0=With a Friend Like You
TTITLE1=A Love That Could Last
TTITLE2=Heat It Up
TTITLE3=Bucket To the South
TTITLE4=You Need Someone Like Me
TTITLE5=Better Love Next Time
TTITLE6=Someone Is Looking
TTITLE7=Soft Spoken Man
TTITLE8=With a Boy Like You
TTITLE9=I've Had Enough
TTITLE10=It's Just a Matter of Time
TTITLE11=Where Does Love Come From
TTITLE12=Tell Me Why
TTITLE13=Never Coss That Line
TTITLE14=Love Ain't Easy
TTITLE15=Remember How It Was
TTITLE16=I'm Hungry I'm Tired
TTITLE17=Hometown Gossip
TTITLE18=Waiting Here For You
TTITLE19=Reaching Out For Him
TTITLE20=I'm a Little Bit Lonely
TTITLE21=The Game
TTITLE22=Pretty Words
EXTD=YEAR: 2003
EXTT0=
EXTT1=
EXTT2=
EXTT3=
EXTT4=
EXTT5=
EXTT6=
EXTT7=
EXTT8=
EXTT9=
EXTT10=
EXTT11=
EXTT12=
EXTT13=
EXTT14=
EXTT15=
EXTT16=
EXTT17=
EXTT18=
EXTT19=
EXTT20=
EXTT21=
EXTT22=
PLAYORDER=
